<svg width="19" height="20" viewBox="0 0 19 20" fill="none" xmlns="http://www.w3.org/2000/svg">
<path d="M8.52377 0.178223H9.66028C9.72051 0.196161 9.78074 0.215729 9.84154 0.23258C10.4246 0.380431 11.0383 0.45979 11.5861 0.685373C15.7866 2.41665 16.7782 7.55232 13.5181 10.605C13.259 10.848 12.9715 11.0632 12.6936 11.2948C12.7096 11.3117 12.7275 11.3269 12.747 11.3399C12.8141 11.3731 12.8828 11.4035 12.9505 11.435C15.4508 12.6081 17.1055 14.4595 17.8636 17.0202C18.0113 17.5209 18.0806 18.0427 18.1858 18.5548V19.2614H16.381C16.3043 15.308 13.0851 12.445 9.3233 12.3379C7.70321 12.2912 6.20985 12.7043 4.89094 13.6126C2.88671 14.996 1.89682 16.9028 1.81102 19.2614H0V18.6091C0.0232866 18.541 0.0422627 18.4717 0.0568251 18.4015C0.454601 15.3401 2.09685 13.0891 4.90799 11.5965C5.10233 11.4932 5.30576 11.4079 5.54102 11.2981C5.4143 11.204 5.31997 11.135 5.22394 11.0632C4.48841 10.5342 3.88642 9.85395 3.46236 9.07269C1.55758 5.62536 3.55498 1.34799 7.51171 0.390758C7.84585 0.308135 8.18623 0.2478 8.52377 0.178223ZM9.09202 10.5854C9.68888 10.5894 10.2806 10.4801 10.833 10.2639C11.3854 10.0477 11.8876 9.72883 12.3103 9.32579C12.7331 8.92276 13.0681 8.44354 13.296 7.91585C13.5239 7.38817 13.6402 6.82249 13.638 6.25155C13.638 5.1035 13.1617 4.00239 12.3135 3.19009C11.4654 2.37779 10.3149 1.92072 9.11476 1.91928C8.51796 1.9157 7.92628 2.02479 7.37363 2.24031C6.82097 2.45582 6.31821 2.77351 5.89412 3.17519C5.47003 3.57687 5.13296 4.05465 4.90221 4.58114C4.67146 5.10764 4.55158 5.67251 4.54942 6.24339C4.54762 6.81436 4.66391 7.38003 4.8916 7.90782C5.11929 8.43561 5.45388 8.9151 5.8761 9.31869C6.29833 9.72227 6.79985 10.042 7.35177 10.2594C7.9037 10.4768 8.49514 10.5876 9.09202 10.5854Z" fill="white"/>
</svg>
