<svg width="19" height="17" viewBox="0 0 19 17" fill="none" xmlns="http://www.w3.org/2000/svg">
<path d="M19 0C14.0287 4.9131 9.67277 10.266 6.58614 16.6249C5.91168 15.7148 5.25966 14.825 4.59743 13.9444C3.38829 12.3414 2.14854 10.7711 0.625123 9.43539C0.440608 9.27651 0.290267 9.08183 0.183209 8.86313C0.0761515 8.64444 0.0146062 8.40629 0.00229936 8.16312C-0.0100075 7.91994 0.0271817 7.67678 0.111614 7.4484C0.196046 7.22002 0.325962 7.01115 0.493494 6.83446C0.659197 6.65684 0.858829 6.51425 1.08059 6.4151C1.30234 6.31596 1.54172 6.26229 1.78458 6.25725C2.02744 6.2522 2.26884 6.2959 2.49452 6.38575C2.7202 6.47561 2.92557 6.60979 3.09851 6.78038C4.28479 7.90617 5.31438 9.18629 6.15963 10.5864C6.25656 10.7455 6.35656 10.9027 6.49839 11.1292C8.0116 8.66909 9.77175 6.46916 11.8921 4.56923C13.9938 2.66534 16.3954 1.12151 19 0Z" fill="#F5001B"/>
</svg>
