<svg width="23" height="24" viewBox="0 0 23 24" fill="none" xmlns="http://www.w3.org/2000/svg">
<path d="M22.799 12.0714C22.799 14.1938 22.8069 16.3162 22.799 18.4386C22.7858 21.6884 20.4827 23.8751 17.0775 23.8814C15.1659 23.8814 13.2543 23.8915 11.3441 23.8814C8.23017 23.8599 5.90595 21.6367 5.8664 18.6593C5.8664 18.3856 5.8664 18.112 5.8664 17.8396C5.87299 17.0615 6.15776 16.6907 6.74969 16.6807C7.34162 16.6706 7.64879 17.059 7.67252 17.8156C7.6724 18.277 7.6988 18.7379 7.75161 19.1965C7.86386 19.9941 8.27149 20.7268 8.90047 21.2613C9.52944 21.7959 10.338 22.0968 11.1793 22.1096C13.2886 22.1335 15.3979 22.1361 17.5072 22.1096C19.3634 22.0831 20.9349 20.6442 20.9533 18.8661C20.9938 14.3473 20.9938 9.82926 20.9533 5.3121C20.9375 3.50373 19.3595 2.08124 17.4532 2.05602C15.4546 2.02953 13.4547 2.03962 11.4561 2.04971C9.2255 2.0598 7.71338 3.50499 7.66592 5.64755C7.67997 6.02613 7.6694 6.40518 7.63428 6.78251C7.56573 7.23524 7.23878 7.48241 6.76023 7.47862C6.54816 7.49025 6.33948 7.42384 6.17696 7.293C6.01444 7.16216 5.9104 6.97681 5.88618 6.77495C5.3984 4.29316 6.65476 1.81389 8.99479 0.798729C9.67172 0.504039 10.4019 0.337457 11.145 0.308172C13.2543 0.243858 15.3636 0.264035 17.473 0.289256C18.8838 0.303129 20.2325 0.846881 21.2281 1.80325C22.2237 2.75962 22.7865 4.05198 22.795 5.40164C22.8214 7.62869 22.795 9.85574 22.795 12.0853L22.799 12.0714Z" fill="white"/>
<path d="M13.3888 12.9352H1.35778C1.1377 12.9488 0.916732 12.9399 0.698615 12.9087C0.230609 12.8091 -0.080521 12.4686 0.0183536 12.0525C0.0908616 11.7473 0.428355 11.4686 0.711795 11.2567C0.851538 11.1521 1.13762 11.2202 1.35646 11.2202H13.3902L13.5062 11.0474C12.9077 10.5102 12.3025 9.9818 11.7159 9.43323C11.1885 8.94015 11.1305 8.38654 11.5392 8.0057C11.9479 7.62486 12.4713 7.6753 12.9894 8.16207C14.0977 9.21044 15.2015 10.2613 16.301 11.3147C16.8719 11.8671 16.8732 12.2782 16.301 12.828C15.1884 13.9025 14.0678 14.9693 12.9393 16.0286C12.4594 16.4788 11.9334 16.5091 11.5405 16.1421C11.1477 15.7752 11.1925 15.214 11.6724 14.755C12.2577 14.1913 12.8589 13.6364 13.4429 13.0777L13.3888 12.9352Z" fill="white"/>
</svg>
