<svg width="19" height="22" viewBox="0 0 19 22" fill="none" xmlns="http://www.w3.org/2000/svg">
<path d="M-3.05176e-05 18.8556V8.79928H2.11772C2.11772 8.41081 2.11772 8.03701 2.11772 7.66319C2.11757 7.20401 2.14365 6.74518 2.19586 6.28888C2.41618 4.71306 3.15371 3.25136 4.29599 2.12657C5.43827 1.00179 6.92266 0.275607 8.52299 0.0586625L9.07759 -0.00732422H9.89638L10.0192 0.0146639C10.2463 0.0403177 10.4732 0.0549851 10.6965 0.0916335C12.3454 0.371214 13.8499 1.19123 14.966 2.41862C16.0821 3.646 16.7443 5.20874 16.845 6.85326C16.8822 7.45429 16.8637 8.05532 16.8711 8.65635V8.79928H18.9851V18.7713C18.9852 18.9133 18.9777 19.0552 18.9627 19.1964C18.8833 19.9564 18.5226 20.6611 17.9495 21.1761C17.3764 21.6911 16.6309 21.9804 15.855 21.989C11.6122 21.989 7.37047 21.989 3.13005 21.989C2.43056 21.985 1.75252 21.7509 1.20362 21.3239C0.654709 20.897 0.26641 20.3017 0.100466 19.6325C0.053726 19.3754 0.0201796 19.1161 -3.05176e-05 18.8556ZM1.6897 10.4594C1.6897 10.4961 1.6897 10.5291 1.6897 10.5621C1.6897 12.9186 1.6897 15.275 1.6897 17.6315C1.69652 18.0321 1.73512 18.4316 1.8051 18.8263C1.84297 19.1774 1.99791 19.5063 2.2457 19.7616C2.4935 20.0169 2.82017 20.1841 3.17471 20.2372C3.6382 20.3244 4.10985 20.3625 4.58158 20.3508H14.4407C14.8883 20.36 15.3358 20.3268 15.7769 20.2519C16.127 20.2068 16.4534 20.0533 16.709 19.8135C16.9646 19.5737 17.136 19.26 17.1986 18.9179C17.2935 18.4857 17.3385 18.0444 17.3326 17.6022V10.4594H1.6897ZM15.0883 8.79561C15.0697 8.23489 15.0697 7.69618 15.0251 7.13546C14.9453 6.10698 14.627 5.11024 14.0946 4.22191C13.5293 3.23972 12.6486 2.47028 11.5909 2.03446C10.5333 1.59864 9.35856 1.52113 8.25131 1.81411C7.18121 2.09539 6.21476 2.67128 5.46524 3.47422C4.71573 4.27717 4.21423 5.27388 4.01958 6.34751C3.90921 7.15134 3.87307 7.96337 3.91163 8.77363C3.91163 8.77363 3.91163 8.77363 3.91163 8.79561H15.0883Z" fill="#969696"/>
</svg>
