<svg width="19" height="20" viewBox="0 0 19 20" fill="none" xmlns="http://www.w3.org/2000/svg">
<path d="M8.52377 0H9.66028C9.72051 0.0182401 9.78074 0.0381384 9.84154 0.0552731C10.4246 0.205616 11.0383 0.286312 11.5861 0.515696C15.7866 2.27614 16.7782 7.49835 13.5181 10.6025C13.259 10.8496 12.9715 11.0684 12.6936 11.3039C12.7096 11.3211 12.7275 11.3365 12.747 11.3498C12.8141 11.3835 12.8828 11.4144 12.9505 11.4465C15.4508 12.6393 17.1055 14.5219 17.8636 17.1258C18.0113 17.6349 18.0806 18.1655 18.1858 18.6862V19.4047H16.381C16.3043 15.3847 13.0851 12.4735 9.3233 12.3646C7.70321 12.3171 6.20985 12.7371 4.89094 13.6607C2.88671 15.0674 1.89682 17.0064 1.81102 19.4047H0V18.7415C0.0232866 18.6722 0.0422627 18.6017 0.0568251 18.5303C0.454601 15.4173 2.09685 13.1285 4.90799 11.6107C5.10233 11.5057 5.30576 11.4189 5.54102 11.3072C5.4143 11.2116 5.31997 11.1414 5.22394 11.0684C4.48841 10.5305 3.88642 9.83877 3.46236 9.04434C1.55758 5.53892 3.55498 1.18948 7.51171 0.216116C7.84585 0.132101 8.18623 0.0707496 8.52377 0ZM9.09202 10.5826C9.68888 10.5866 10.2806 10.4755 10.833 10.2556C11.3854 10.0358 11.8876 9.71154 12.3103 9.30171C12.7331 8.89189 13.0681 8.40459 13.296 7.86801C13.5239 7.33143 13.6402 6.75623 13.638 6.17566C13.638 5.00827 13.1617 3.88861 12.3135 3.06262C11.4654 2.23663 10.3149 1.77186 9.11476 1.7704C8.51796 1.76676 7.92628 1.87769 7.37363 2.09683C6.82097 2.31597 6.31821 2.63902 5.89412 3.04747C5.47003 3.45592 5.13296 3.94174 4.90221 4.47711C4.67146 5.01248 4.55158 5.58686 4.54942 6.16737C4.54762 6.74796 4.66391 7.32316 4.8916 7.85984C5.11929 8.39653 5.45388 8.8841 5.8761 9.29449C6.29833 9.70487 6.79985 10.03 7.35177 10.251C7.9037 10.4721 8.49514 10.5848 9.09202 10.5826Z" fill="#969696"/>
</svg>
